PathFileType	4	(X/Y/Z)	Patient4_TMGait_0pt5_01_right_36.trc.trc
DataRate	CameraRate	NumFrames	NumMarkers	Units	OrigDataRate	OrigDataStartFrame	OrigNumFrames
75.675675675676	75.675675675676	4	33	mm	75.675675675676	18	       141
Frame#	Time	L.ASIS			Sacral			L.Shoulder			Chest			R.Shoulder			Neck			R.ASIS			R.Thigh.Superior			R.Thigh.Lateral			R.Thigh.Inferior			R.Patella			L.Thigh.Superior			L.Thigh.Lateral			L.Thigh.Inferior			L.Patella			L.Shank.Superior			L.Shank.Lateral			L.Shank.Inferior			R.Shank.Superior			R.Shank.Lateral			R.Shank.Inferior			R.Heel			R.Midfoot.Superior			R.Midfoot.Lateral			R.Toe			L.Heel			L.Midfoot.Lateral			L.Midfoot.Superior			L.Toe			L.Elbow			L.Wrist			R.Elbow			R.Wrist			
		X1	Y1	Z1	X2	Y2	Z2	X3	Y3	Z3	X4	Y4	Z4	X5	Y5	Z5	X6	Y6	Z6	X7	Y7	Z7	X8	Y8	Z8	X9	Y9	Z9	X10	Y10	Z10	X11	Y11	Z11	X12	Y12	Z12	X13	Y13	Z13	X14	Y14	Z14	X15	Y15	Z15	X16	Y16	Z16	X17	Y17	Z17	X18	Y18	Z18	X19	Y19	Z19	X20	Y20	Z20	X21	Y21	Z21	X22	Y22	Z22	X23	Y23	Z23	X24	Y24	Z24	X25	Y25	Z25	X26	Y26	Z26	X27	Y27	Z27	X28	Y28	Z28	X29	Y29	Z29	X30	Y30	Z30	X31	Y31	Z31	X32	Y32	Z32	X33	Y33	Z33	

18	47.544642857143	794.814088475127	959.391017208820	299.552013148543	570.801000484559	1007.227153067108	439.755170629288	768.163138039957	1431.044775121785	264.328958516409	850.695803591213	1362.407665093188	437.250367306863	750.576653789371	1443.617349561595	600.822132348729	757.001843691616	1495.574452433637	412.358931689893	786.820835687414	945.003589424113	575.375640954481	857.525813080118	770.918518501762	554.354979471637	811.008952240907	649.528012414184	625.744134864001	901.018454019701	608.979646984730	548.850754380996	932.640103165832	522.960761708605	568.649524602896	800.905081700461	735.006621730009	329.469034585511	687.221412110875	638.044634138078	267.384835859776	749.213196095271	546.959786660555	332.442776954815	734.779433414111	480.670620799302	343.615018593901	705.342843425103	413.576687825292	336.267184689746	608.599654698134	304.930473456464	287.506374347750	650.960894217965	192.630977096885	362.740304165060	912.425920761451	435.488064163234	576.392597444267	851.647222089959	324.556426937938	637.262499173137	918.133321037315	235.491693890526	587.535577886546	818.436092679645	48.916718475063	556.615185747288	978.195416853598	124.909001286320	601.145195297967	901.678305048007	45.937966933739	632.051693660478	1103.590665086482	90.177719837686	629.544897437006	513.399361734537	39.800516886419	407.359983826635	588.203292869939	34.984251879299	327.817774788520	672.369253494866	95.608448310782	353.643966639476	800.414009427207	40.107404062457	328.700644770294	803.397875353029	1109.431907992928	92.607644473022	1048.822651566423	1024.953052258568	88.020386191630	589.986456712734	1138.177541456522	700.640815557214	555.147999297492	878.960493644144	712.263451107704	
19	47.557857142857	795.939853093031	958.525391570083	300.775785531059	571.883852383969	1005.587956666393	440.886475852890	767.888466865567	1429.784873842392	265.534042793299	850.452408043873	1361.542432082946	438.574952764153	750.036701032704	1442.665109069093	602.008520315941	756.469924854424	1494.376574187688	413.484289976953	787.868975679351	943.503667637550	576.652237654246	857.393911256895	767.915624615048	555.698510990238	808.984703859279	646.713221434319	626.402518110294	899.032712126245	605.815220389857	549.757466134219	930.283471368472	521.255153652216	568.675876851888	799.784138157184	733.601340713561	330.614396479286	685.049752367042	637.762455817172	267.939520880379	745.554189593015	546.067345503675	333.259561809561	730.410136053128	479.879629894137	344.239148589099	700.584795294015	413.133333347298	336.695735568932	603.288287861016	305.058462613681	287.643640245593	644.935941758395	192.459923242553	362.866589950684	912.473594925141	433.968060730724	576.476965593186	854.659117633764	321.150404808010	636.897354905191	924.013393461497	234.081177548242	587.202246184543	829.439799212304	45.217765536950	555.866784307469	987.579577474246	124.602543376877	600.477084112832	912.659971476879	44.151081683929	631.403486950687	1113.757494991847	92.493965959482	629.161795828644	506.715680783732	39.880585242570	407.267757975591	581.530987014106	34.988768220020	327.790326580275	665.710998064516	95.576086565871	353.647026800366	793.707162935825	40.045563775765	328.722541912756	804.894514434931	1108.031634839357	94.465458212391	1050.615222502938	1024.387284955617	91.306732151949	588.960795518407	1137.890984411371	702.161782559983	553.085792646427	878.846505128399	714.395465274982	
20	47.571071428571	797.167354664859	957.577723735929	302.118143301046	573.072702650265	1003.866812258674	442.216119499568	767.545788421922	1428.500023587171	266.963648257920	850.260970817311	1360.640878872515	440.066644248265	749.557148523524	1441.573092786231	603.430708568895	755.922826236927	1493.112670155098	414.870164498038	789.115066829497	941.891620494172	578.032015881062	857.776926044213	765.015831849279	557.148108468898	807.431485280474	643.914986988121	626.972627882804	897.673949343054	602.824402800948	550.727158817083	928.380029714301	519.383268001218	568.775438871304	798.831590057516	732.137850335870	331.821277444957	683.127023632341	637.410539373303	268.574114413725	742.198777005561	545.122199683922	334.143381793911	726.358478548981	479.003941949855	344.943798837451	696.103223833602	412.602672658648	337.189182206347	598.165069760981	305.187582534177	287.806667149816	638.991880213693	192.248538682287	362.995780989648	912.345567774452	432.149101073228	576.514244510280	856.534855930712	317.989555355406	636.256490690020	928.014245602187	232.478042385117	586.634197859544	836.984436902909	42.659546011957	554.753081210096	994.166365513759	123.683551423882	599.393358758410	920.054237668933	42.720499913694	630.418614803205	1120.640793932089	92.869366372962	628.423080541396	500.026309289644	39.970645797020	407.146534755001	574.865521156866	34.992059690014	327.748125173705	659.047833552573	95.546612498973	353.645645544200	787.004946105166	39.972298145073	328.744404100093	805.914100220398	1106.466149234370	96.584557966947	1051.722854846272	1022.932490014165	94.746833570930	588.706136257727	1137.024070385792	704.028017262615	552.654638719304	878.044850984489	716.946895353450	
21	47.584285714286	798.465525695434	956.558378474476	303.576631518535	574.347418884612	1002.098935570919	443.754932517341	767.151016188817	1427.204010494622	268.623663521313	850.136375104468	1359.715658177672	441.731515766094	749.152616751226	1440.358182524718	605.093517021581	755.378280403805	1491.801782016637	416.524359685061	790.560977831104	940.188476990587	579.510675691052	858.691043496599	762.286584052600	558.664853736462	806.410096881599	641.194804278844	627.432097315479	897.001033399359	600.090462334731	551.721415054623	927.010795958115	517.405032459943	568.907108247456	798.091848437355	730.628862494732	333.053853227885	681.481407584072	636.980788225750	269.305294570541	739.214678832619	544.117182711597	335.086935383610	722.699500142565	478.021861935600	345.738368850820	691.962792637931	411.959036019567	337.760302966350	593.265743070732	305.315986119111	288.019761893539	633.147394432303	191.986258473504	363.138405011483	912.141492079154	430.060019168926	576.491232801068	857.406895360958	315.055060048303	635.415323489714	930.254709916668	230.614819487649	585.870870151490	841.141291707260	41.045328129573	553.413670691514	998.077285880147	122.084168907155	597.946758006116	924.002682370107	41.515872981017	629.214076852563	1124.445740515193	91.286558982330	627.344383206034	493.332594353216	40.078695761707	406.996996840744	568.209605036791	34.998574096469	327.693596865935	652.384431939339	95.524640245752	353.641888646923	780.312866612224	39.884917349316	328.762436493008	806.448570442438	1104.744383556643	98.965576877416	1052.132452222828	1020.576294108110	98.310990882738	589.185365767232	1135.610899691645	706.223127387339	553.803957876341	876.594429483373	719.890473845153	
